<mxfile host="app.diagrams.net" modified="2023-03-25T16:55:07.025Z" agent="Mozilla/5.0 (Windows NT 10.0; Win64; x64) AppleWebKit/537.36 (KHTML, like Gecko) Chrome/111.0.0.0 Safari/537.36" etag="1Cu_a8MID2yKQwHZQeOG" version="21.1.0" type="github">
  <diagram name="Page-1" id="YUVKAWSUG0l6nDVknDRJ">
    <mxGraphModel dx="4583" dy="1747" grid="1" gridSize="10" guides="1" tooltips="1" connect="1" arrows="1" fold="1" page="1" pageScale="1" pageWidth="850" pageHeight="1100" math="0" shadow="0">
      <root>
        <mxCell id="0" />
        <mxCell id="1" parent="0" />
        <mxCell id="jH5fr4eW5swtdE3OAj7Z-1" value="Actor" style="shape=umlActor;verticalLabelPosition=bottom;verticalAlign=top;html=1;" vertex="1" parent="1">
          <mxGeometry x="-415" y="1350" width="60" height="110" as="geometry" />
        </mxCell>
        <mxCell id="jH5fr4eW5swtdE3OAj7Z-5" value="Actor" style="shape=umlActor;verticalLabelPosition=bottom;verticalAlign=top;html=1;" vertex="1" parent="1">
          <mxGeometry x="-410" y="160" width="50" height="90" as="geometry" />
        </mxCell>
        <mxCell id="jH5fr4eW5swtdE3OAj7Z-6" value="&lt;font style=&quot;font-size: 24px;&quot;&gt;Admin&lt;/font&gt;" style="text;html=1;strokeColor=none;fillColor=none;align=center;verticalAlign=middle;whiteSpace=wrap;rounded=0;" vertex="1" parent="1">
          <mxGeometry x="-410" y="270" width="60" height="30" as="geometry" />
        </mxCell>
        <mxCell id="jH5fr4eW5swtdE3OAj7Z-7" value="&lt;font style=&quot;font-size: 18px;&quot;&gt;Pimpinan&lt;/font&gt;" style="text;html=1;strokeColor=none;fillColor=none;align=center;verticalAlign=middle;whiteSpace=wrap;rounded=0;" vertex="1" parent="1">
          <mxGeometry x="-415" y="1490" width="60" height="30" as="geometry" />
        </mxCell>
        <mxCell id="jH5fr4eW5swtdE3OAj7Z-12" value="Login" style="ellipse;whiteSpace=wrap;html=1;" vertex="1" parent="1">
          <mxGeometry x="-260" y="760" width="400" height="180" as="geometry" />
        </mxCell>
        <mxCell id="jH5fr4eW5swtdE3OAj7Z-13" value="Stok Obat" style="ellipse;whiteSpace=wrap;html=1;" vertex="1" parent="1">
          <mxGeometry x="730" y="430" width="215" height="120" as="geometry" />
        </mxCell>
        <mxCell id="jH5fr4eW5swtdE3OAj7Z-14" value="Mengakses Data&amp;nbsp;&lt;br&gt;Kategori Obat" style="ellipse;whiteSpace=wrap;html=1;" vertex="1" parent="1">
          <mxGeometry x="735" y="120" width="215" height="100" as="geometry" />
        </mxCell>
        <mxCell id="jH5fr4eW5swtdE3OAj7Z-15" value="Transaksi Obat" style="ellipse;whiteSpace=wrap;html=1;" vertex="1" parent="1">
          <mxGeometry x="735" y="770" width="215" height="110" as="geometry" />
        </mxCell>
        <mxCell id="jH5fr4eW5swtdE3OAj7Z-16" value="Data User" style="ellipse;whiteSpace=wrap;html=1;" vertex="1" parent="1">
          <mxGeometry x="730" y="1100" width="215" height="120" as="geometry" />
        </mxCell>
        <mxCell id="jH5fr4eW5swtdE3OAj7Z-17" value="Laporan" style="ellipse;whiteSpace=wrap;html=1;" vertex="1" parent="1">
          <mxGeometry x="740" y="1460" width="205" height="120" as="geometry" />
        </mxCell>
        <mxCell id="jH5fr4eW5swtdE3OAj7Z-18" value="Logout" style="ellipse;whiteSpace=wrap;html=1;" vertex="1" parent="1">
          <mxGeometry x="1920" y="810" width="410" height="150" as="geometry" />
        </mxCell>
        <mxCell id="jH5fr4eW5swtdE3OAj7Z-22" value="Menambah" style="ellipse;whiteSpace=wrap;html=1;" vertex="1" parent="1">
          <mxGeometry x="560" y="10" width="140" height="70" as="geometry" />
        </mxCell>
        <mxCell id="jH5fr4eW5swtdE3OAj7Z-23" value="Mengedit" style="ellipse;whiteSpace=wrap;html=1;" vertex="1" parent="1">
          <mxGeometry x="750" width="140" height="70" as="geometry" />
        </mxCell>
        <mxCell id="jH5fr4eW5swtdE3OAj7Z-24" value="MEnghapus" style="ellipse;whiteSpace=wrap;html=1;" vertex="1" parent="1">
          <mxGeometry x="930" y="10" width="140" height="70" as="geometry" />
        </mxCell>
        <mxCell id="jH5fr4eW5swtdE3OAj7Z-25" value="Extends" style="endArrow=block;endSize=16;endFill=0;html=1;rounded=0;entryX=0.5;entryY=1;entryDx=0;entryDy=0;exitX=0;exitY=0;exitDx=0;exitDy=0;" edge="1" parent="1" source="jH5fr4eW5swtdE3OAj7Z-14" target="jH5fr4eW5swtdE3OAj7Z-22">
          <mxGeometry width="160" relative="1" as="geometry">
            <mxPoint x="620" y="380" as="sourcePoint" />
            <mxPoint x="780" y="380" as="targetPoint" />
          </mxGeometry>
        </mxCell>
        <mxCell id="jH5fr4eW5swtdE3OAj7Z-26" value="Extends" style="endArrow=block;endSize=16;endFill=0;html=1;rounded=0;entryX=0.5;entryY=1;entryDx=0;entryDy=0;exitX=0.5;exitY=0;exitDx=0;exitDy=0;" edge="1" parent="1" source="jH5fr4eW5swtdE3OAj7Z-14" target="jH5fr4eW5swtdE3OAj7Z-23">
          <mxGeometry width="160" relative="1" as="geometry">
            <mxPoint x="776" y="145" as="sourcePoint" />
            <mxPoint x="640" y="90" as="targetPoint" />
          </mxGeometry>
        </mxCell>
        <mxCell id="jH5fr4eW5swtdE3OAj7Z-27" value="Extends" style="endArrow=block;endSize=16;endFill=0;html=1;rounded=0;entryX=0.5;entryY=1;entryDx=0;entryDy=0;" edge="1" parent="1" target="jH5fr4eW5swtdE3OAj7Z-24">
          <mxGeometry width="160" relative="1" as="geometry">
            <mxPoint x="930" y="130" as="sourcePoint" />
            <mxPoint x="830" y="80" as="targetPoint" />
          </mxGeometry>
        </mxCell>
        <mxCell id="jH5fr4eW5swtdE3OAj7Z-28" value="Menambah" style="ellipse;whiteSpace=wrap;html=1;" vertex="1" parent="1">
          <mxGeometry x="570" y="289" width="140" height="70" as="geometry" />
        </mxCell>
        <mxCell id="jH5fr4eW5swtdE3OAj7Z-29" value="Extends" style="endArrow=block;endSize=16;endFill=0;html=1;rounded=0;entryX=0.5;entryY=1;entryDx=0;entryDy=0;" edge="1" target="jH5fr4eW5swtdE3OAj7Z-28" parent="1" source="jH5fr4eW5swtdE3OAj7Z-13">
          <mxGeometry width="160" relative="1" as="geometry">
            <mxPoint x="776" y="414" as="sourcePoint" />
            <mxPoint x="790" y="659" as="targetPoint" />
          </mxGeometry>
        </mxCell>
        <mxCell id="jH5fr4eW5swtdE3OAj7Z-30" value="Mengedit" style="ellipse;whiteSpace=wrap;html=1;" vertex="1" parent="1">
          <mxGeometry x="760" y="279" width="140" height="70" as="geometry" />
        </mxCell>
        <mxCell id="jH5fr4eW5swtdE3OAj7Z-31" value="Extends" style="endArrow=block;endSize=16;endFill=0;html=1;rounded=0;entryX=0.5;entryY=1;entryDx=0;entryDy=0;exitX=0.5;exitY=0;exitDx=0;exitDy=0;" edge="1" target="jH5fr4eW5swtdE3OAj7Z-30" parent="1" source="jH5fr4eW5swtdE3OAj7Z-13">
          <mxGeometry width="160" relative="1" as="geometry">
            <mxPoint x="853" y="399" as="sourcePoint" />
            <mxPoint x="650" y="369" as="targetPoint" />
          </mxGeometry>
        </mxCell>
        <mxCell id="jH5fr4eW5swtdE3OAj7Z-32" value="MEnghapus" style="ellipse;whiteSpace=wrap;html=1;" vertex="1" parent="1">
          <mxGeometry x="940" y="289" width="140" height="70" as="geometry" />
        </mxCell>
        <mxCell id="jH5fr4eW5swtdE3OAj7Z-33" value="Extends" style="endArrow=block;endSize=16;endFill=0;html=1;rounded=0;entryX=0.5;entryY=1;entryDx=0;entryDy=0;exitX=1;exitY=0;exitDx=0;exitDy=0;" edge="1" target="jH5fr4eW5swtdE3OAj7Z-32" parent="1" source="jH5fr4eW5swtdE3OAj7Z-13">
          <mxGeometry width="160" relative="1" as="geometry">
            <mxPoint x="940" y="409" as="sourcePoint" />
            <mxPoint x="840" y="359" as="targetPoint" />
          </mxGeometry>
        </mxCell>
        <mxCell id="jH5fr4eW5swtdE3OAj7Z-34" value="Menambah" style="ellipse;whiteSpace=wrap;html=1;" vertex="1" parent="1">
          <mxGeometry x="580" y="630" width="140" height="70" as="geometry" />
        </mxCell>
        <mxCell id="jH5fr4eW5swtdE3OAj7Z-35" value="Mengedit" style="ellipse;whiteSpace=wrap;html=1;" vertex="1" parent="1">
          <mxGeometry x="770" y="620" width="140" height="70" as="geometry" />
        </mxCell>
        <mxCell id="jH5fr4eW5swtdE3OAj7Z-36" value="MEnghapus" style="ellipse;whiteSpace=wrap;html=1;" vertex="1" parent="1">
          <mxGeometry x="950" y="630" width="140" height="70" as="geometry" />
        </mxCell>
        <mxCell id="jH5fr4eW5swtdE3OAj7Z-37" value="Extends" style="endArrow=block;endSize=16;endFill=0;html=1;rounded=0;entryX=0.5;entryY=1;entryDx=0;entryDy=0;" edge="1" target="jH5fr4eW5swtdE3OAj7Z-34" parent="1">
          <mxGeometry width="160" relative="1" as="geometry">
            <mxPoint x="778" y="785" as="sourcePoint" />
            <mxPoint x="800" y="1000" as="targetPoint" />
          </mxGeometry>
        </mxCell>
        <mxCell id="jH5fr4eW5swtdE3OAj7Z-38" value="Extends" style="endArrow=block;endSize=16;endFill=0;html=1;rounded=0;entryX=0.5;entryY=1;entryDx=0;entryDy=0;exitX=0.5;exitY=0;exitDx=0;exitDy=0;" edge="1" target="jH5fr4eW5swtdE3OAj7Z-35" parent="1">
          <mxGeometry width="160" relative="1" as="geometry">
            <mxPoint x="848" y="771" as="sourcePoint" />
            <mxPoint x="660" y="710" as="targetPoint" />
          </mxGeometry>
        </mxCell>
        <mxCell id="jH5fr4eW5swtdE3OAj7Z-39" value="Extends" style="endArrow=block;endSize=16;endFill=0;html=1;rounded=0;entryX=0.5;entryY=1;entryDx=0;entryDy=0;exitX=1;exitY=0;exitDx=0;exitDy=0;" edge="1" target="jH5fr4eW5swtdE3OAj7Z-36" parent="1">
          <mxGeometry width="160" relative="1" as="geometry">
            <mxPoint x="923" y="788" as="sourcePoint" />
            <mxPoint x="850" y="700" as="targetPoint" />
          </mxGeometry>
        </mxCell>
        <mxCell id="jH5fr4eW5swtdE3OAj7Z-40" value="Menambah" style="ellipse;whiteSpace=wrap;html=1;" vertex="1" parent="1">
          <mxGeometry x="568" y="960" width="140" height="70" as="geometry" />
        </mxCell>
        <mxCell id="jH5fr4eW5swtdE3OAj7Z-41" value="Mengedit" style="ellipse;whiteSpace=wrap;html=1;" vertex="1" parent="1">
          <mxGeometry x="758" y="950" width="140" height="70" as="geometry" />
        </mxCell>
        <mxCell id="jH5fr4eW5swtdE3OAj7Z-42" value="MEnghapus" style="ellipse;whiteSpace=wrap;html=1;" vertex="1" parent="1">
          <mxGeometry x="938" y="960" width="140" height="70" as="geometry" />
        </mxCell>
        <mxCell id="jH5fr4eW5swtdE3OAj7Z-43" value="Extends" style="endArrow=block;endSize=16;endFill=0;html=1;rounded=0;entryX=0.5;entryY=1;entryDx=0;entryDy=0;" edge="1" target="jH5fr4eW5swtdE3OAj7Z-40" parent="1">
          <mxGeometry width="160" relative="1" as="geometry">
            <mxPoint x="766" y="1115" as="sourcePoint" />
            <mxPoint x="788" y="1330" as="targetPoint" />
          </mxGeometry>
        </mxCell>
        <mxCell id="jH5fr4eW5swtdE3OAj7Z-44" value="Extends" style="endArrow=block;endSize=16;endFill=0;html=1;rounded=0;entryX=0.5;entryY=1;entryDx=0;entryDy=0;exitX=0.5;exitY=0;exitDx=0;exitDy=0;" edge="1" target="jH5fr4eW5swtdE3OAj7Z-41" parent="1">
          <mxGeometry width="160" relative="1" as="geometry">
            <mxPoint x="836" y="1101" as="sourcePoint" />
            <mxPoint x="648" y="1040" as="targetPoint" />
          </mxGeometry>
        </mxCell>
        <mxCell id="jH5fr4eW5swtdE3OAj7Z-45" value="Extends" style="endArrow=block;endSize=16;endFill=0;html=1;rounded=0;entryX=0.5;entryY=1;entryDx=0;entryDy=0;exitX=1;exitY=0;exitDx=0;exitDy=0;" edge="1" target="jH5fr4eW5swtdE3OAj7Z-42" parent="1">
          <mxGeometry width="160" relative="1" as="geometry">
            <mxPoint x="911" y="1118" as="sourcePoint" />
            <mxPoint x="838" y="1030" as="targetPoint" />
          </mxGeometry>
        </mxCell>
        <mxCell id="jH5fr4eW5swtdE3OAj7Z-46" value="Menambah" style="ellipse;whiteSpace=wrap;html=1;" vertex="1" parent="1">
          <mxGeometry x="566" y="1317" width="140" height="70" as="geometry" />
        </mxCell>
        <mxCell id="jH5fr4eW5swtdE3OAj7Z-47" value="Mengedit" style="ellipse;whiteSpace=wrap;html=1;" vertex="1" parent="1">
          <mxGeometry x="756" y="1307" width="140" height="70" as="geometry" />
        </mxCell>
        <mxCell id="jH5fr4eW5swtdE3OAj7Z-48" value="MEnghapus" style="ellipse;whiteSpace=wrap;html=1;" vertex="1" parent="1">
          <mxGeometry x="936" y="1317" width="140" height="70" as="geometry" />
        </mxCell>
        <mxCell id="jH5fr4eW5swtdE3OAj7Z-49" value="Extends" style="endArrow=block;endSize=16;endFill=0;html=1;rounded=0;entryX=0.5;entryY=1;entryDx=0;entryDy=0;" edge="1" target="jH5fr4eW5swtdE3OAj7Z-46" parent="1">
          <mxGeometry width="160" relative="1" as="geometry">
            <mxPoint x="764" y="1472" as="sourcePoint" />
            <mxPoint x="786" y="1687" as="targetPoint" />
          </mxGeometry>
        </mxCell>
        <mxCell id="jH5fr4eW5swtdE3OAj7Z-50" value="Extends" style="endArrow=block;endSize=16;endFill=0;html=1;rounded=0;entryX=0.5;entryY=1;entryDx=0;entryDy=0;exitX=0.5;exitY=0;exitDx=0;exitDy=0;" edge="1" target="jH5fr4eW5swtdE3OAj7Z-47" parent="1">
          <mxGeometry width="160" relative="1" as="geometry">
            <mxPoint x="834" y="1458" as="sourcePoint" />
            <mxPoint x="646" y="1397" as="targetPoint" />
          </mxGeometry>
        </mxCell>
        <mxCell id="jH5fr4eW5swtdE3OAj7Z-51" value="Extends" style="endArrow=block;endSize=16;endFill=0;html=1;rounded=0;entryX=0.5;entryY=1;entryDx=0;entryDy=0;exitX=1;exitY=0;exitDx=0;exitDy=0;" edge="1" target="jH5fr4eW5swtdE3OAj7Z-48" parent="1">
          <mxGeometry width="160" relative="1" as="geometry">
            <mxPoint x="909" y="1475" as="sourcePoint" />
            <mxPoint x="836" y="1387" as="targetPoint" />
          </mxGeometry>
        </mxCell>
        <mxCell id="jH5fr4eW5swtdE3OAj7Z-65" value="" style="endArrow=none;html=1;rounded=0;entryX=1;entryY=1;entryDx=0;entryDy=0;entryPerimeter=0;exitX=0;exitY=0;exitDx=0;exitDy=0;" edge="1" parent="1" source="jH5fr4eW5swtdE3OAj7Z-12" target="jH5fr4eW5swtdE3OAj7Z-5">
          <mxGeometry width="50" height="50" relative="1" as="geometry">
            <mxPoint x="750" y="1000" as="sourcePoint" />
            <mxPoint x="800" y="950" as="targetPoint" />
          </mxGeometry>
        </mxCell>
        <mxCell id="jH5fr4eW5swtdE3OAj7Z-66" value="" style="endArrow=none;html=1;rounded=0;entryX=0;entryY=1;entryDx=0;entryDy=0;exitX=0.75;exitY=0.1;exitDx=0;exitDy=0;exitPerimeter=0;fillColor=#FF4517;strokeColor=#6912FF;" edge="1" parent="1" source="jH5fr4eW5swtdE3OAj7Z-1" target="jH5fr4eW5swtdE3OAj7Z-12">
          <mxGeometry width="50" height="50" relative="1" as="geometry">
            <mxPoint x="-141" y="1456" as="sourcePoint" />
            <mxPoint x="-300" y="920" as="targetPoint" />
          </mxGeometry>
        </mxCell>
        <mxCell id="jH5fr4eW5swtdE3OAj7Z-68" value="" style="endArrow=none;html=1;rounded=0;entryX=0;entryY=0.5;entryDx=0;entryDy=0;exitX=0.5;exitY=0;exitDx=0;exitDy=0;" edge="1" parent="1" source="jH5fr4eW5swtdE3OAj7Z-12" target="jH5fr4eW5swtdE3OAj7Z-14">
          <mxGeometry width="50" height="50" relative="1" as="geometry">
            <mxPoint x="-191" y="796" as="sourcePoint" />
            <mxPoint x="-350" y="260" as="targetPoint" />
          </mxGeometry>
        </mxCell>
        <mxCell id="jH5fr4eW5swtdE3OAj7Z-69" value="" style="endArrow=none;html=1;rounded=0;entryX=0;entryY=0.5;entryDx=0;entryDy=0;exitX=1;exitY=0;exitDx=0;exitDy=0;" edge="1" parent="1" source="jH5fr4eW5swtdE3OAj7Z-12" target="jH5fr4eW5swtdE3OAj7Z-13">
          <mxGeometry width="50" height="50" relative="1" as="geometry">
            <mxPoint x="-50" y="770" as="sourcePoint" />
            <mxPoint x="745" y="180" as="targetPoint" />
          </mxGeometry>
        </mxCell>
        <mxCell id="jH5fr4eW5swtdE3OAj7Z-70" value="" style="endArrow=none;html=1;rounded=0;entryX=0;entryY=0.5;entryDx=0;entryDy=0;exitX=1;exitY=0.5;exitDx=0;exitDy=0;" edge="1" parent="1" source="jH5fr4eW5swtdE3OAj7Z-12" target="jH5fr4eW5swtdE3OAj7Z-15">
          <mxGeometry width="50" height="50" relative="1" as="geometry">
            <mxPoint x="91" y="796" as="sourcePoint" />
            <mxPoint x="740" y="500" as="targetPoint" />
          </mxGeometry>
        </mxCell>
        <mxCell id="jH5fr4eW5swtdE3OAj7Z-71" value="" style="endArrow=none;html=1;rounded=0;entryX=0;entryY=0.5;entryDx=0;entryDy=0;exitX=1;exitY=1;exitDx=0;exitDy=0;" edge="1" parent="1" source="jH5fr4eW5swtdE3OAj7Z-12" target="jH5fr4eW5swtdE3OAj7Z-16">
          <mxGeometry width="50" height="50" relative="1" as="geometry">
            <mxPoint x="150" y="860" as="sourcePoint" />
            <mxPoint x="745" y="835" as="targetPoint" />
          </mxGeometry>
        </mxCell>
        <mxCell id="jH5fr4eW5swtdE3OAj7Z-72" value="" style="endArrow=none;html=1;rounded=0;entryX=0;entryY=0.5;entryDx=0;entryDy=0;exitX=0.5;exitY=1;exitDx=0;exitDy=0;" edge="1" parent="1" source="jH5fr4eW5swtdE3OAj7Z-12" target="jH5fr4eW5swtdE3OAj7Z-17">
          <mxGeometry width="50" height="50" relative="1" as="geometry">
            <mxPoint x="91" y="924" as="sourcePoint" />
            <mxPoint x="740" y="1170" as="targetPoint" />
          </mxGeometry>
        </mxCell>
        <mxCell id="jH5fr4eW5swtdE3OAj7Z-73" value="" style="endArrow=none;html=1;rounded=0;strokeColor=#6912FF;" edge="1" parent="1">
          <mxGeometry width="50" height="50" relative="1" as="geometry">
            <mxPoint x="-110" y="930" as="sourcePoint" />
            <mxPoint x="740" y="1520" as="targetPoint" />
          </mxGeometry>
        </mxCell>
        <mxCell id="jH5fr4eW5swtdE3OAj7Z-74" value="" style="endArrow=none;html=1;rounded=0;entryX=0;entryY=0.5;entryDx=0;entryDy=0;strokeColor=#6912FF;" edge="1" parent="1" target="jH5fr4eW5swtdE3OAj7Z-14">
          <mxGeometry width="50" height="50" relative="1" as="geometry">
            <mxPoint x="-29" y="760" as="sourcePoint" />
            <mxPoint x="756" y="180" as="targetPoint" />
          </mxGeometry>
        </mxCell>
        <mxCell id="jH5fr4eW5swtdE3OAj7Z-75" value="" style="endArrow=none;html=1;rounded=0;entryX=0;entryY=0.5;entryDx=0;entryDy=0;strokeColor=#6912FF;" edge="1" parent="1">
          <mxGeometry width="50" height="50" relative="1" as="geometry">
            <mxPoint x="130" y="880" as="sourcePoint" />
            <mxPoint x="745" y="835" as="targetPoint" />
          </mxGeometry>
        </mxCell>
        <mxCell id="jH5fr4eW5swtdE3OAj7Z-80" value="" style="endArrow=block;dashed=1;endFill=0;endSize=12;html=1;rounded=0;labelBackgroundColor=default;strokeColor=default;fontFamily=Helvetica;fontSize=11;fontColor=default;shape=connector;exitX=1;exitY=0.5;exitDx=0;exitDy=0;entryX=0;entryY=0.5;entryDx=0;entryDy=0;" edge="1" parent="1" source="jH5fr4eW5swtdE3OAj7Z-15" target="jH5fr4eW5swtdE3OAj7Z-18">
          <mxGeometry width="160" relative="1" as="geometry">
            <mxPoint x="1120" y="840" as="sourcePoint" />
            <mxPoint x="1690" y="870" as="targetPoint" />
          </mxGeometry>
        </mxCell>
        <mxCell id="jH5fr4eW5swtdE3OAj7Z-81" value="" style="endArrow=block;dashed=1;endFill=0;endSize=12;html=1;rounded=0;labelBackgroundColor=default;strokeColor=default;fontFamily=Helvetica;fontSize=11;fontColor=default;shape=connector;exitX=1;exitY=0.5;exitDx=0;exitDy=0;" edge="1" parent="1" target="jH5fr4eW5swtdE3OAj7Z-18">
          <mxGeometry width="160" relative="1" as="geometry">
            <mxPoint x="945" y="1160" as="sourcePoint" />
            <mxPoint x="1915" y="1220" as="targetPoint" />
          </mxGeometry>
        </mxCell>
        <mxCell id="jH5fr4eW5swtdE3OAj7Z-82" value="" style="endArrow=block;dashed=1;endFill=0;endSize=12;html=1;rounded=0;labelBackgroundColor=default;strokeColor=default;fontFamily=Helvetica;fontSize=11;fontColor=default;shape=connector;exitX=1;exitY=0.5;exitDx=0;exitDy=0;" edge="1" parent="1" target="jH5fr4eW5swtdE3OAj7Z-18">
          <mxGeometry width="160" relative="1" as="geometry">
            <mxPoint x="945" y="1522.5" as="sourcePoint" />
            <mxPoint x="1952" y="1287.5" as="targetPoint" />
          </mxGeometry>
        </mxCell>
        <mxCell id="jH5fr4eW5swtdE3OAj7Z-83" value="" style="endArrow=block;dashed=1;endFill=0;endSize=12;html=1;rounded=0;labelBackgroundColor=default;strokeColor=default;fontFamily=Helvetica;fontSize=11;fontColor=default;shape=connector;exitX=1;exitY=0.5;exitDx=0;exitDy=0;entryX=0.031;entryY=0.273;entryDx=0;entryDy=0;entryPerimeter=0;" edge="1" parent="1" target="jH5fr4eW5swtdE3OAj7Z-18">
          <mxGeometry width="160" relative="1" as="geometry">
            <mxPoint x="945" y="490" as="sourcePoint" />
            <mxPoint x="1915" y="550" as="targetPoint" />
          </mxGeometry>
        </mxCell>
        <mxCell id="jH5fr4eW5swtdE3OAj7Z-84" value="" style="endArrow=block;dashed=1;endFill=0;endSize=12;html=1;rounded=0;labelBackgroundColor=default;strokeColor=default;fontFamily=Helvetica;fontSize=11;fontColor=default;shape=connector;exitX=1;exitY=0.5;exitDx=0;exitDy=0;" edge="1" parent="1" target="jH5fr4eW5swtdE3OAj7Z-18">
          <mxGeometry width="160" relative="1" as="geometry">
            <mxPoint x="950" y="170" as="sourcePoint" />
            <mxPoint x="1938" y="531" as="targetPoint" />
          </mxGeometry>
        </mxCell>
        <mxCell id="jH5fr4eW5swtdE3OAj7Z-85" value="&lt;font style=&quot;font-size: 14px;&quot;&gt;&amp;lt;includes&amp;gt;&lt;/font&gt;" style="text;html=1;strokeColor=none;fillColor=none;align=center;verticalAlign=middle;whiteSpace=wrap;rounded=0;fontSize=11;fontFamily=Helvetica;fontColor=default;rotation=20;" vertex="1" parent="1">
          <mxGeometry x="1312.58" y="600" width="90" height="55.18" as="geometry" />
        </mxCell>
        <mxCell id="jH5fr4eW5swtdE3OAj7Z-86" value="&lt;font style=&quot;font-size: 14px;&quot;&gt;&amp;lt;includes&amp;gt;&lt;/font&gt;" style="text;html=1;strokeColor=none;fillColor=none;align=center;verticalAlign=middle;whiteSpace=wrap;rounded=0;fontSize=11;fontFamily=Helvetica;fontColor=default;rotation=5;" vertex="1" parent="1">
          <mxGeometry x="1240" y="810" width="90" height="55.18" as="geometry" />
        </mxCell>
        <mxCell id="jH5fr4eW5swtdE3OAj7Z-87" value="&lt;font style=&quot;font-size: 14px;&quot;&gt;&amp;lt;includes&amp;gt;&lt;/font&gt;" style="text;html=1;strokeColor=none;fillColor=none;align=center;verticalAlign=middle;whiteSpace=wrap;rounded=0;fontSize=11;fontFamily=Helvetica;fontColor=default;rotation=30;" vertex="1" parent="1">
          <mxGeometry x="1370" y="410" width="90" height="55.18" as="geometry" />
        </mxCell>
        <mxCell id="jH5fr4eW5swtdE3OAj7Z-88" value="&lt;font style=&quot;font-size: 14px;&quot;&gt;&amp;lt;includes&amp;gt;&lt;/font&gt;" style="text;html=1;strokeColor=none;fillColor=none;align=center;verticalAlign=middle;whiteSpace=wrap;rounded=0;fontSize=11;fontFamily=Helvetica;fontColor=default;rotation=-10;" vertex="1" parent="1">
          <mxGeometry x="1275" y="1030" width="90" height="55.18" as="geometry" />
        </mxCell>
        <mxCell id="jH5fr4eW5swtdE3OAj7Z-89" value="&lt;font style=&quot;font-size: 14px;&quot;&gt;&amp;lt;includes&amp;gt;&lt;/font&gt;" style="text;html=1;strokeColor=none;fillColor=none;align=center;verticalAlign=middle;whiteSpace=wrap;rounded=0;fontSize=11;fontFamily=Helvetica;fontColor=default;rotation=-25;" vertex="1" parent="1">
          <mxGeometry x="1370" y="1230" width="90" height="55.18" as="geometry" />
        </mxCell>
      </root>
    </mxGraphModel>
  </diagram>
</mxfile>
